<svg width="13" height="9" viewBox="0 0 13 9" fill="none" xmlns="http://www.w3.org/2000/svg">
<path fill-rule="evenodd" clip-rule="evenodd" d="M6.64998 0.183577C6.71497 0.125386 6.79219 0.0792168 6.8772 0.0477156C6.9622 0.0162144 7.05334 0 7.14537 0C7.23741 0 7.32854 0.0162144 7.41355 0.0477156C7.49855 0.0792168 7.57577 0.125386 7.64076 0.183577L11.839 3.93276C11.9042 3.9908 11.9559 4.05976 11.9911 4.13567C12.0264 4.21159 12.0446 4.29297 12.0446 4.37516C12.0446 4.45736 12.0264 4.53874 11.9911 4.61465C11.9559 4.69057 11.9042 4.75952 11.839 4.81757L7.64076 8.56675C7.50938 8.68408 7.33118 8.75 7.14537 8.75C6.95956 8.75 6.78136 8.68408 6.64998 8.56675C6.51859 8.44942 6.44478 8.29028 6.44478 8.12435C6.44478 7.95841 6.51859 7.79928 6.64998 7.68194L10.3542 4.37516L6.64998 1.06838C6.58482 1.01034 6.53312 0.941385 6.49784 0.865471C6.46257 0.789556 6.44441 0.708172 6.44441 0.625981C6.44441 0.543789 6.46257 0.462406 6.49784 0.386491C6.53312 0.310576 6.58482 0.241621 6.64998 0.183577Z" fill="white"/>
<path fill-rule="evenodd" clip-rule="evenodd" d="M0.848007 4.37517C0.848007 4.20944 0.921726 4.05051 1.05295 3.93332C1.18417 3.81614 1.36214 3.75031 1.54771 3.75031H10.6439C10.8295 3.75031 11.0075 3.81614 11.1387 3.93332C11.2699 4.05051 11.3436 4.20944 11.3436 4.37517C11.3436 4.54089 11.2699 4.69983 11.1387 4.81701C11.0075 4.9342 10.8295 5.00003 10.6439 5.00003H1.54771C1.36214 5.00003 1.18417 4.9342 1.05295 4.81701C0.921726 4.69983 0.848007 4.54089 0.848007 4.37517Z" fill="white"/>
</svg>
